<svg width="32" height="32" viewBox="0 0 32 32" fill="none" xmlns="http://www.w3.org/2000/svg">
  <!-- Letter G -->
  <path d="M6 8C6 7.44772 6.44772 7 7 7H13C13.5523 7 14 7.44772 14 8C14 8.55228 13.5523 9 13 9H8V15H11V13H9C8.44772 13 8 12.5523 8 12C8 11.4477 8.44772 11 9 11H12C12.5523 11 13 11.4477 13 12V16C13 16.5523 12.5523 17 12 17H7C6.44772 17 6 16.5523 6 16V8Z" fill="white"/>
  
  <!-- Letter R -->
  <path d="M18 8C18 7.44772 18.4477 7 19 7H23C24.1046 7 25 7.89543 25 9V10C25 10.7403 24.5978 11.3866 24 11.7324L25.7071 13.4395C26.0976 13.8301 26.0976 14.4632 25.7071 14.8537C25.3166 15.2442 24.6834 15.2442 24.2929 14.8537L22.5858 13.1466C22.2107 12.7715 21.702 12.5858 21.1716 12.5858H20V16C20 16.5523 19.5523 17 19 17C18.4477 17 18 16.5523 18 16V8ZM20 9V10.5858H23V9H20Z" fill="white"/>
</svg>