<svg width="120" height="106" viewBox="0 0 120 106" fill="none" xmlns="http://www.w3.org/2000/svg">
<g clip-path="url(#clip0_1_1929)">
<path d="M59.9999 63.6073C65.9173 63.6073 70.7142 58.8103 70.7142 52.893C70.7142 46.9757 65.9173 42.1787 59.9999 42.1787C54.0826 42.1787 49.2856 46.9757 49.2856 52.893C49.2856 58.8103 54.0826 63.6073 59.9999 63.6073Z" fill="#F5DE19"/>
<path d="M60 77.4583C47.122 77.7698 34.2763 76.0339 21.9429 72.3155C16.2455 70.5094 10.9317 67.6643 6.27 63.924C4.49113 62.6463 3.00974 60.9988 1.92747 59.0946C0.845197 57.1905 0.18767 55.0748 0 52.8926C0 45.8083 7.78286 38.8655 20.82 34.3226C33.4831 30.2972 46.714 28.3463 60 28.5455C73.1087 28.3623 86.1623 30.2779 98.6657 34.2197C104.153 35.969 109.286 38.6765 113.829 42.2169C115.577 43.4351 117.036 45.0228 118.103 46.8677C119.169 48.7126 119.817 50.7695 120 52.8926C120 60.2555 111.3 67.7169 97.2857 72.354C85.1911 75.9513 72.6164 77.6728 60 77.4583ZM60 33.6712C47.2891 33.5013 34.6321 35.3559 22.5043 39.1655C10.5043 43.3526 5.12571 49.0783 5.12571 52.8797C5.12571 56.8569 10.9071 63.1097 23.6014 67.4512C35.4003 70.9905 47.6855 72.6381 60 72.3326C72.0703 72.5484 84.1025 70.9152 95.6786 67.4897C108.857 63.1226 114.857 56.8612 114.857 52.8926C114.641 51.5307 114.145 50.2285 113.4 49.0681C112.655 47.9078 111.677 46.9145 110.529 46.1512C106.465 43.0104 101.879 40.6108 96.9814 39.0626C85.0201 35.3073 72.5356 33.4872 60 33.6712Z" fill="#F5DE19"/>
<path d="M35.6553 106.331C33.656 106.377 31.6803 105.892 29.9295 104.925C23.7924 101.385 21.6667 91.1767 24.2424 77.6124C27.0823 64.6313 32.003 52.1951 38.8138 40.7852C45.2027 29.3385 53.3818 18.9877 63.041 10.1252C67.2974 6.24538 72.2076 3.1504 77.5438 0.983791C79.4739 0.0792446 81.5794 -0.389648 83.711 -0.389648C85.8425 -0.389648 87.948 0.0792446 89.8781 0.983791C96.2595 4.66093 98.3724 15.9238 95.3938 30.3795C92.4662 42.6562 87.6734 54.4114 81.1824 65.2352C75.0184 76.5468 67.0969 86.8074 57.7138 95.6338C53.3029 99.6657 48.1838 102.846 42.6153 105.015C40.3859 105.843 38.0328 106.287 35.6553 106.331ZM43.2538 43.3309C36.7571 54.2566 32.041 66.1468 29.2824 78.5552C26.9124 91.0481 29.1881 98.5609 32.4967 100.472C35.9253 102.457 44.2481 100.575 54.3538 91.7467C63.3111 83.2907 70.872 73.4689 76.7553 62.6466C82.9736 52.2989 87.5711 41.0601 90.3881 29.3209C93.191 15.7138 90.7695 7.38236 87.3324 5.40236C86.0442 4.90876 84.6675 4.6878 83.2895 4.75346C81.9115 4.81911 80.5622 5.16995 79.3267 5.78379C74.5767 7.74385 70.2098 10.5265 66.4267 14.0038C57.1981 22.4929 49.3854 32.4021 43.2838 43.3566L43.2538 43.3309Z" fill="#F5DE19"/>
<path d="M84.3262 106.387C78.5191 106.387 71.1434 102.872 63.4634 96.2681C53.6349 87.325 45.3175 76.8512 38.8334 65.2524C32.1079 53.9996 27.2262 41.7433 24.3734 28.9481C23.1361 23.3187 22.9068 17.5146 23.6962 11.8052C23.8787 9.68726 24.5236 7.63511 25.5855 5.7935C26.6474 3.95188 28.1003 2.36565 29.8419 1.14666C36.2148 -2.54334 47.0276 1.24951 58.0634 11.0467C67.2373 19.7132 75.0279 29.7354 81.1634 40.7638C87.8846 51.7539 92.8175 63.7418 95.7776 76.2795C97.0681 82.1154 97.2672 88.1397 96.3648 94.0481C96.1501 96.227 95.4667 98.3337 94.3615 100.224C93.2564 102.114 91.7555 103.742 89.9619 104.998C88.2398 105.953 86.2947 106.432 84.3262 106.387ZM43.2691 62.6724C49.4895 73.7571 57.4346 83.7811 66.8062 92.3681C76.4448 100.661 84.0905 102.444 87.3776 100.511C90.8062 98.5181 93.3348 90.3838 90.7291 77.2224C87.8743 65.2521 83.1429 53.8091 76.7105 43.3181C70.8555 32.7629 63.4194 23.1661 54.6605 14.8609C44.2719 5.63808 35.8462 3.57666 32.4134 5.56523C31.3434 6.43472 30.4654 7.51661 29.8347 8.7426C29.204 9.96858 28.8343 11.312 28.7491 12.6881C28.0677 17.7799 28.2896 22.952 29.4048 27.9667C32.1489 40.203 36.8308 51.9221 43.2734 62.6809L43.2691 62.6724Z" fill="#F5DE19"/>
</g>
<defs>
<clipPath id="clip0_1_1929">
<rect width="120" height="106" fill="white"/>
</clipPath>
</defs>
</svg>
