<svg width="24" height="24" viewBox="0 0 24 24" fill="none" xmlns="http://www.w3.org/2000/svg">
  <path d="M18.5 12C19.88 12 21 13.12 21 14.5C21 15.88 19.88 17 18.5 17H6.5C4.57 17 3 15.43 3 13.5C3 11.57 4.57 10 6.5 10C6.5 7.79 8.29 6 10.5 6C12.71 6 14.5 7.79 14.5 10H18.5C19.88 10 21 11.12 21 12.5C21 12.17 20.83 11.88 20.5 11.7C20.17 11.52 19.84 11.5 19.5 11.5H14.5C14.5 9.29 12.71 7.5 10.5 7.5C8.29 7.5 6.5 9.29 6.5 11.5C5.12 11.5 4 12.62 4 14C4 15.38 5.12 16.5 6.5 16.5H18.5C19.33 16.5 20 15.83 20 15C20 14.17 19.33 13.5 18.5 13.5H14.5C14.5 11.29 12.71 9.5 10.5 9.5C8.29 9.5 6.5 11.29 6.5 13.5C5.67 13.5 5 14.17 5 15C5 15.83 5.67 16.5 6.5 16.5H18.5Z" fill="white"/>
</svg>