<svg width="24" height="24" viewBox="0 0 24 24" fill="none" xmlns="http://www.w3.org/2000/svg">
  <rect x="2" y="2" width="20" height="20" rx="2" fill="#F7DF1E"/>
  <path d="M8.5 14.5C8.5 15.6046 9.39543 16.5 10.5 16.5C11.6046 16.5 12.5 15.6046 12.5 14.5V9H11V14.5C11 14.7761 10.7761 15 10.5 15C10.2239 15 10 14.7761 10 14.5H8.5Z" fill="#323330"/>
  <path d="M14 12.5C14 11.9477 14.4477 11.5 15 11.5C15.5523 11.5 16 11.9477 16 12.5V14.5C16 15.0523 15.5523 15.5 15 15.5C14.4477 15.5 14 15.0523 14 14.5V12.5Z" fill="#323330"/>
</svg>